<?xml version="1.0" encoding="UTF-8"?><svg id="Lager_2" xmlns="http://www.w3.org/2000/svg" viewBox="0 0 860.54 114.74"><defs><style>.cls-1{fill:#0ea573;}.cls-2{fill:#085e4e;}</style></defs><g id="Lager_1-2"><path class="cls-2" d="M834.19,26.08l-9.92,8.34,1.82-9.61c.18-.97-.56-1.86-1.54-1.86h-19.1c-1.13,0-2.1.8-2.31,1.92l-12.31,65.07c-.18.97.56,1.86,1.54,1.86h19.1c1.13,0,2.1-.8,2.31-1.92l8.32-43.98c1.45-7.65,5.27-7.65,9.09-7.65s3.1,3.81,3.1,3.82l-2.54,13.44c-.18.97.56,1.86,1.54,1.86h19.1c1.13,0,2.1-.8,2.31-1.92l5.8-30.64c.18-.97-.56-1.86-1.54-1.86h-16.19c-3.14,0-6.18,1.11-8.59,3.13Z"/><path class="cls-2" d="M788.98,59.28l6.52-34.46c.18-.97-.56-1.86-1.54-1.86h-53.53c-1.13,0-2.1.8-2.31,1.92l-12.31,65.07c-.18.97.56,1.86,1.54,1.86h53.53c1.13,0,2.1-.8,2.31-1.92l3.62-19.17c.18-.97-.56-1.86-1.54-1.86h-21.05l-2.17,11.47h-11.47l3.62-19.12h32.48c1.13,0,2.1-.8,2.31-1.92ZM759.26,34.42h11.48l-2.89,15.3h-11.48l2.9-15.3Z"/><path class="cls-2" d="M707.52,24.86l-10.49,55.45h-11.47l10.5-55.51c.18-.97-.56-1.86-1.54-1.86h-19.1c-1.13,0-2.1.8-2.31,1.92l-10.49,55.45h-11.47l10.5-55.51c.18-.97-.56-1.86-1.54-1.86h-19.1c-1.13,0-2.1.8-2.31,1.92l-12.31,65.07c-.18.97.56,1.86,1.54,1.86h87.95c1.13,0,2.1-.8,2.31-1.92l12.31-65.07c.18-.97-.56-1.86-1.54-1.86h-19.1c-1.13,0-2.1.8-2.31,1.92Z"/><path class="cls-2" d="M573.66,24.87l-12.31,65.07c-.18.97.56,1.86,1.54,1.86h53.52c1.13,0,2.1-.8,2.31-1.92l12.31-65.07c.18-.97-.56-1.86-1.54-1.86h-53.52c-1.13,0-2.1.8-2.31,1.92ZM597.59,80.32h-11.48l8.69-45.9h11.47l-8.68,45.9Z"/><path class="cls-2" d="M539.7,26.08l-9.92,8.34,1.82-9.61c.18-.97-.56-1.86-1.54-1.86h-19.1c-1.13,0-2.1.8-2.31,1.92l-16.66,88.01c-.18.97.56,1.86,1.54,1.86h19.1c1.13,0,2.1-.8,2.31-1.92l3.98-21.02h32.47c1.13,0,2.1-.8,2.31-1.92l12.31-65.07c.18-.97-.56-1.86-1.54-1.86h-16.19c-3.14,0-6.18,1.11-8.58,3.13ZM521.1,80.32l6.51-34.42c1.45-7.65,5.27-7.65,9.09-7.65s3.1,3.82,3.1,3.82h0l-7.24,38.25h-11.47Z"/><path class="cls-2" d="M474.68,26.08l-9.92,8.34,6.16-32.56c.18-.97-.56-1.86-1.54-1.86h-19.1c-1.13,0-2.1.8-2.31,1.92l-16.65,88.01c-.18.97.56,1.86,1.54,1.86h19.1c1.13,0,2.1-.8,2.31-1.92l8.32-43.98c1.45-7.65,5.27-7.65,9.09-7.65s3.1,3.82,3.1,3.82h0s-9.05,47.86-9.05,47.86c-.18.97.56,1.86,1.54,1.86h19.1c1.13,0,2.1-.8,2.31-1.92l12.31-65.07c.18-.97-.56-1.86-1.54-1.86h-16.19c-3.14,0-6.18,1.11-8.58,3.13Z"/><path class="cls-2" d="M402.53,80.32h-11.47l7.24-38.25h0c1.45-7.65,9.09-7.65,9.09-7.65h24.83c1.13,0,2.1-.8,2.31-1.92l1.46-7.7c.18-.97-.56-1.86-1.54-1.86h-32.53l3.99-21.09c.18-.97-.56-1.86-1.54-1.86h-19.1c-1.13,0-2.1.8-2.31,1.92l-16.65,88.01c-.18.97.56,1.86,1.54,1.86h53.53c1.13,0,2.1-.8,2.31-1.92l5.8-30.65c.18-.97-.56-1.86-1.54-1.86h-21.05s-4.34,22.95-4.34,22.95Z"/><path class="cls-2" d="M344.65,26.08l-9.92,8.34,1.82-9.61c.18-.97-.56-1.86-1.54-1.86h-19.1c-1.13,0-2.1.8-2.31,1.92l-12.31,65.07c-.18.97.56,1.86,1.54,1.86h19.1c1.13,0,2.1-.8,2.31-1.92l8.32-43.98c1.45-7.65,5.27-7.65,9.09-7.65s3.11,3.81,3.1,3.82l-2.54,13.44c-.18.97.56,1.86,1.54,1.86h19.1c1.13,0,2.1-.8,2.31-1.92l5.8-30.64c.18-.97-.56-1.86-1.54-1.86h-16.19c-3.14,0-6.18,1.11-8.58,3.13Z"/><path class="cls-2" d="M248.56,24.87l-12.31,65.07c-.18.97.56,1.86,1.54,1.86h53.52c1.13,0,2.1-.8,2.31-1.92l12.31-65.07c.18-.97-.56-1.86-1.54-1.86h-53.52c-1.13,0-2.1.8-2.31,1.92ZM272.49,80.32h-11.48l8.68-45.9h11.47l-8.68,45.9Z"/><path class="cls-2" d="M223.3,22.95c-3.21,0-6.31,1.13-8.77,3.2l-9.84,8.28,1.82-9.61c.18-.97-.56-1.86-1.54-1.86h-19.1c-1.13,0-2.1.8-2.31,1.92l-12.31,65.07c-.18.97.56,1.86,1.54,1.86h19.1c1.13,0,2.1-.8,2.31-1.92l8.32-43.98c1.45-7.65,5.27-7.65,9.09-7.65s2.96,3.82,2.96,3.82l.24-.53-9.16,48.39c-.18.97.56,1.86,1.54,1.86h19.1c1.13,0,2.1-.8,2.31-1.92l12.31-65.07c.18-.97-.56-1.86-1.54-1.86h-16.09Z"/><path class="cls-1" d="M131.78,7.65h-44.8c-1.31,0-2.1,1.46-1.37,2.56l16.29,24.39c.46.68,1.23,1.1,2.05,1.1h14.5l-3.79,20.04s0,0,0,0c-.75,4.01-1.52,8.01-5.52,8.01h-17.62c-1.37,0-2.65-.69-3.42-1.83L53.07,9.47c-.76-1.14-2.04-1.83-3.42-1.83H17.62c-1.19,0-2.2.84-2.42,2.01L.03,89.84c-.19,1.01.58,1.95,1.62,1.95h28.03c1.19,0,2.2-.84,2.42-2.01l7.94-41.99,26.72,42.09c.75,1.19,2.06,1.91,3.47,1.91h35.57c1.19,0,2.2-.84,2.42-2.01l3.41-18.03c.76-4,1.51-8.01,5.51-8.01h8.02c20.03,0,30.32-12.02,33.35-28.05,3.03-16.03-10.72-28.05-26.75-28.05Z"/></g></svg>