<?xml version="1.0" encoding="utf-8"?>
<!-- Generator: Adobe Illustrator 28.0.0, SVG Export Plug-In . SVG Version: 6.00 Build 0)  -->
<svg version="1.1" id="Layer_1" xmlns="http://www.w3.org/2000/svg" xmlns:xlink="http://www.w3.org/1999/xlink" x="0px" y="0px"
	 viewBox="0 0 1030 205" style="enable-background:new 0 0 1030 205;" xml:space="preserve">
<style type="text/css">
	.st0{fill:#1B3661;}
	.st1{fill-rule:evenodd;clip-rule:evenodd;fill:#1B3661;}
</style>
<g>
	<path class="st0" d="M328,180.5c-11.8,0-22.2-2.2-31.1-6.5s-15.7-10.1-20.4-17.3c-4.7-7.2-7-15.2-7-24h21.2c0,5.2,1.4,10,4.3,14.3
		c2.9,4.3,7.1,7.8,12.8,10.3c5.6,2.5,12.3,3.8,20.1,3.8c12,0,20.9-2.3,26.6-6.8s8.7-10.4,8.7-17.6c0-6.1-2.1-11-6.2-14.9
		c-4.1-3.9-10.4-6.6-18.9-8l-27.9-5.2c-8.4-1.6-15.3-4.1-20.8-7.5c-5.5-3.4-9.6-7.8-12.5-13.1c-2.8-5.3-4.2-11.8-4.2-19.3
		c0-8.4,2.1-15.9,6.4-22.5c4.2-6.6,10.4-11.9,18.4-15.7c8-3.8,17.4-5.7,28.2-5.7c11.7,0,21.9,2.1,30.6,6.3c8.7,4.2,15.4,9.9,20,17.1
		c4.6,7.2,6.9,15.4,6.9,24.5h-21.2c0-5.2-1.4-10-4.3-14.3c-2.9-4.3-7.1-7.8-12.5-10.3c-5.5-2.5-12-3.8-19.5-3.8
		c-10.1,0-17.9,2.3-23.5,6.9c-5.6,4.6-8.3,10.5-8.3,17.5c0,5.6,1.9,10.3,5.6,14c3.8,3.7,9.7,6.2,17.8,7.7l23.8,4.3
		c10.1,1.7,18.3,4.4,24.7,8s11,8.2,14.1,13.7c3,5.6,4.5,12.3,4.5,20.2c0,8.4-2.2,15.9-6.5,22.6c-4.3,6.7-10.8,11.9-19.3,15.7
		C350.3,178.6,340,180.5,328,180.5L328,180.5z"/>
	<path class="st0" d="M445.6,180.5c-10,0-19-2.4-27.2-7.2c-8.1-4.8-14.5-11.5-19.1-20c-4.6-8.5-6.9-18.2-6.9-29.2s2.3-20.7,6.9-29.3
		c4.6-8.6,11-15.3,19.1-20s17.2-7.1,27.2-7.1c8.7,0,16.4,1.7,23.2,5s12.4,7.9,16.9,13.7s7.6,12.5,9.3,20h-20.1
		c-2-6.3-5.6-11.3-10.6-14.8c-5-3.5-11.2-5.3-18.6-5.3c-6.1,0-11.6,1.6-16.8,4.7s-9.2,7.5-12.1,13.3s-4.4,12.4-4.4,19.9
		s1.5,14.1,4.4,19.9s7,10.2,12.1,13.3c5.1,3.1,10.7,4.6,16.8,4.6c7.5,0,13.7-1.8,18.7-5.5c5-3.7,8.5-8.8,10.5-15.5H495
		c-1.7,7.8-4.8,14.6-9.3,20.6c-4.5,5.9-10.1,10.6-16.9,14C462,178.8,454.3,180.5,445.6,180.5L445.6,180.5z"/>
	<path class="st0" d="M540.8,180.5c-7.7,0-14.4-1.4-20.1-4.3c-5.8-2.9-10.2-6.9-13.4-12c-3.2-5.1-4.8-10.9-4.8-17.2
		c0-7.1,1.5-13.2,4.6-18.5c3.1-5.3,7.9-9.3,14.5-12.2c6.6-2.9,14.8-4.3,24.6-4.3h28.1v-3c0-7.4-2.2-13.2-6.5-17.4
		c-4.3-4.3-10.2-6.4-17.5-6.4c-4.6,0-8.7,0.8-12.3,2.3c-3.6,1.5-6.4,3.5-8.4,6.1c-2,2.5-3.2,5.2-3.7,8.1H506
		c0.6-5.9,2.6-11.5,6.2-16.7c3.5-5.2,8.6-9.4,15.2-12.6c6.6-3.2,14.2-4.8,23-4.8s16.7,1.7,23.4,5s11.7,8.1,15.3,14.4
		c3.5,6.3,5.3,13.6,5.3,22v69.5h-19.5v-12.1h-1.1c-2.5,3.6-6.6,6.9-12.5,9.9C555.4,179,548.6,180.5,540.8,180.5L540.8,180.5z
		 M542.5,162.9c6.5,0,12.2-1.2,17-3.7c4.8-2.4,8.5-6,11-10.6c2.5-4.6,3.8-10,3.8-16.2v-3.9h-27.3c-8.4,0-14.6,1.6-18.6,4.9
		c-4,3.2-6.1,7.5-6.1,12.7s1.7,9.1,5.2,12.2C531.1,161.4,536.1,162.9,542.5,162.9L542.5,162.9z"/>
	<path class="st0" d="M608.7,178.3V69.7h19.5v11.2h1.1c2.7-3.5,6.9-6.6,12.5-9.3c5.6-2.7,12.1-4.1,19.5-4.1c8.2,0,15.6,1.9,22.2,5.7
		c6.6,3.8,11.7,9.2,15.5,16.1c3.8,6.9,5.6,14.9,5.6,23.8v65.2h-19.9v-64.1c0-5.2-1.2-9.9-3.6-14.2c-2.4-4.2-5.7-7.6-9.8-10.1
		c-4.2-2.4-8.8-3.7-13.8-3.7s-10,1.3-14.5,3.8s-8,5.9-10.5,10.2c-2.5,4.3-3.8,8.9-3.8,14v64.1L608.7,178.3L608.7,178.3z"/>
	<path class="st0" d="M726.9,178.3v-90h-17.5V69.7h17.5V50.2c0-6.5,2-11.6,6-15.5c4-3.8,9.3-5.7,16.1-5.7H774v18h-20.5
		c-2.2,0-3.8,0.6-5,1.7c-1.2,1.2-1.7,2.9-1.7,5.2v15.8h22.1v18.6h-22.1v90L726.9,178.3L726.9,178.3z"/>
	<path class="st0" d="M807.5,180.5c-7.7,0-14.4-1.4-20.1-4.3c-5.8-2.9-10.2-6.9-13.4-12c-3.2-5.1-4.8-10.9-4.8-17.2
		c0-7.1,1.5-13.2,4.7-18.5c3.1-5.3,7.9-9.3,14.5-12.2c6.6-2.9,14.8-4.3,24.6-4.3h28.1v-3c0-7.4-2.2-13.2-6.5-17.4
		c-4.3-4.3-10.2-6.4-17.5-6.4c-4.6,0-8.7,0.8-12.3,2.3c-3.6,1.5-6.4,3.5-8.4,6.1c-2,2.5-3.2,5.2-3.7,8.1h-19.9
		c0.6-5.9,2.6-11.5,6.2-16.7c3.5-5.2,8.6-9.4,15.2-12.6c6.6-3.2,14.2-4.8,23-4.8s16.7,1.7,23.4,5c6.6,3.3,11.7,8.1,15.3,14.4
		c3.5,6.3,5.3,13.6,5.3,22v69.5h-19.5v-12.1h-1.1c-2.5,3.6-6.6,6.9-12.5,9.9C822.1,179,815.3,180.5,807.5,180.5L807.5,180.5z
		 M809.2,162.9c6.5,0,12.2-1.2,17-3.7c4.8-2.4,8.5-6,11-10.6c2.5-4.6,3.8-10,3.8-16.2v-3.9h-27.3c-8.4,0-14.6,1.6-18.6,4.9
		c-4,3.2-6.1,7.5-6.1,12.7s1.7,9.1,5.2,12.2C797.8,161.4,802.7,162.9,809.2,162.9L809.2,162.9z"/>
	<path class="st0" d="M916.6,180.5c-9.4,0-17.5-1.7-24.2-5c-6.8-3.3-11.9-7.6-15.4-12.9c-3.5-5.3-5.2-10.7-5.2-16.3h19.7
		c0,3,1,5.8,3,8.3c2,2.5,4.9,4.6,8.5,6.2s8.2,2.4,13.5,2.4c7.8,0,13.7-1.4,17.9-4.2c4.1-2.8,6.2-6.3,6.2-10.5c0-3.9-1.4-7.1-4.1-9.5
		s-7.1-4.2-13-5.2l-18-3.2c-10.7-1.7-18.7-5.2-24-10.3c-5.3-5.1-8-11.9-8-20.4c0-6.1,1.6-11.5,4.8-16.4c3.2-4.9,7.9-8.8,14.3-11.6
		c6.3-2.8,14-4.2,22.9-4.2s16.5,1.6,23.2,4.9c6.6,3.2,11.7,7.5,15.3,12.8c3.5,5.3,5.3,10.7,5.3,16.3h-19.7c0-3-1-5.8-2.9-8.3
		c-2-2.5-4.7-4.5-8.3-6.1c-3.6-1.5-7.9-2.3-12.8-2.3c-7.1,0-12.5,1.4-16.3,4.2s-5.7,6.3-5.7,10.5c0,3.6,1.3,6.5,3.8,8.8
		c2.5,2.2,6.7,3.9,12.5,4.9l18.2,3c11.1,1.9,19.3,5.5,24.7,10.8c5.3,5.3,8,12.5,8,21.4c0,5.9-1.7,11.3-5,16.2
		c-3.3,4.9-8.3,8.8-14.8,11.6S926.1,180.5,916.6,180.5L916.6,180.5z"/>
	<path class="st0" d="M1003.2,178.3c-6.9,0-12.4-1.9-16.3-5.7c-4-3.8-6-8.9-6-15.3v-69h-17.3V69.7H981V38.5h19.9v31.2h24.9v18.6
		h-24.9v64.9c0,2.3,0.6,4,1.7,5.1c1.2,1.1,2.8,1.6,5,1.6h18.2v18.4L1003.2,178.3L1003.2,178.3z"/>
</g>
<path class="st1" d="M199.9,87.9l-83-83c-0.8-0.8-1.6-1.4-2.6-1.8c-1-0.4-2-0.6-3.1-0.6H93.4c-1.1,0-2.1,0.2-3.1,0.6
	c-1,0.4-1.9,1-2.6,1.8l-83,83c-1.5,1.5-2.3,3.6-2.4,5.7v17.8c0,2.2,0.9,4.2,2.4,5.7l83,83c0.8,0.8,1.6,1.4,2.6,1.8
	c1,0.4,2,0.6,3.1,0.6h17.8c1.1,0,2.1-0.2,3.1-0.6c1-0.4,1.9-1,2.6-1.8l83-83c1.5-1.5,2.4-3.6,2.4-5.7V93.6
	C202.2,91.5,201.4,89.4,199.9,87.9L199.9,87.9z M193.9,107.6c-22.1,0-43.3,12-58.9,27.6s-27.6,36.8-27.6,58.9H97.1
	c0-22.2-13.6-45-27.6-58.9s-38.7-27.6-58.9-27.6V97.4c20.2,0,45-13.7,58.9-27.6S97.1,31,97.1,10.8h10.3c0,20.2,12,43.3,27.6,58.9
	s36.8,27.6,58.9,27.6V107.6z"/>
</svg>
